<?xml version="1.0" encoding="utf-8"?>
<!-- Generator: Adobe Illustrator 22.0.1, SVG Export Plug-In . SVG Version: 6.00 Build 0)  -->
<svg version="1.1" id="Layer_1" xmlns="http://www.w3.org/2000/svg" xmlns:xlink="http://www.w3.org/1999/xlink" x="0px" y="0px"
	 viewBox="0 0 97.7 73.7" style="enable-background:new 0 0 97.7 73.7;" xml:space="preserve">
<style type="text/css">
	.st0{display:none;}
	.st1{display:inline;fill:#663695;}
	.st2{fill:#663695;}
</style>
<g class="st0">
	<path class="st1" d="M114.8,631c7,3.1,10.5,6.9,10.5,11.4c0,1.9-0.9,4.9-2.6,9c-1.8,4.1-3.2,7.7-4.4,10.8l-18.1,44.1
		c-1.6,4.8-4.4,8.2-8.2,10.2c-1.6,0.8-3.7,1.2-6.3,1.2c-2.5,0-5-1-7.3-2.9c-2.4-1.9-3.9-3.9-4.7-5.8l-1.3-2.8
		c-0.9-2.2-4.1-10.8-9.7-25.7c-1.1,2.6-2.7,6.9-4.9,12.9c-2.1,6-3.5,9.7-4.1,11.2c-0.6,1.5-1,2.5-1.2,3c-0.2,0.5-0.6,1.4-1.4,2.7
		c-0.8,1.3-1.6,2.5-2.6,3.5c-2.6,2.6-5.7,4-9.1,4c-3.4,0-6.3-1-8.6-2.9c-2.3-1.9-3.8-3.9-4.6-5.8L1.3,648.2
		c-1.1-3.3-1.6-5.4-1.6-6.4c0-4.4,3.1-7.8,9.4-10.4c3.5-1.4,6.4-2.1,8.6-2.1c2.2,0,4,0.5,5.4,1.4c1.4,0.9,2.3,1.9,2.9,2.8
		c0.5,0.9,1,1.9,1.3,2.9c1.9,4.4,5.8,14.7,11.7,31l9.7-26.7c0.7-2.2,1.9-4.1,3.6-5.8c3.2-3.2,6.4-4.8,9.7-4.8c3.3,0,6.1,0.9,8.5,2.6
		c2.4,1.8,4,3.5,4.9,5.3l1.3,2.8c5.5,15.4,8.7,24.2,9.7,26.4l10-27.3c2.6-7,6.6-10.5,11.9-10.5C110.3,629.3,112.5,629.9,114.8,631z"
		/>
	<path class="st1" d="M161.5,614.2c-0.8,1.6-2.3,2.7-4.4,3.4c-2.1,0.7-4.9,1-8.3,1s-6.2-0.3-8.3-1c-2.1-0.7-3.5-1.8-4.4-3.5
		c-0.8-1.6-1.3-3.1-1.5-4.4c-0.2-1.3-0.2-3.2-0.2-5.7c0-2.5,0.1-4.4,0.2-5.7c0.2-1.3,0.6-2.7,1.4-4.2c1.5-3,5.8-4.4,12.8-4.4
		c6.9,0,11.1,1.5,12.5,4.4c0.9,1.6,1.4,3.1,1.6,4.4c0.2,1.3,0.2,3.2,0.2,5.7c0,2.5-0.1,4.4-0.2,5.7
		C162.8,611.2,162.3,612.6,161.5,614.2z M134.4,644.8c0-2.5,0.1-4.4,0.2-5.7c0.2-1.3,0.6-2.7,1.4-4.4c1.5-2.9,5.8-4.3,12.8-4.3
		c5.3,0,9,0.9,11.2,2.8c1.9,1.5,2.9,3.9,3,7.1c0.1,1.1,0.2,2.7,0.2,4.8v57.6c0,2.5-0.1,4.4-0.2,5.7c-0.2,1.3-0.7,2.7-1.6,4.4
		c-1.4,2.9-5.7,4.3-12.7,4.3c-6.9,0-11.1-1.5-12.7-4.4c-0.8-1.6-1.2-3.1-1.4-4.3c-0.2-1.2-0.2-3.1-0.2-5.8V644.8z"/>
	<path class="st1" d="M176.4,603.9c0-2.5,0.1-4.4,0.2-5.7c0.2-1.3,0.6-2.7,1.4-4.4c1.5-3,5.8-4.4,12.8-4.4c6.7,0,10.9,1.5,12.5,4.4
		c0.9,1.6,1.4,3.1,1.6,4.4c0.2,1.3,0.2,3.2,0.2,5.8v76.3c0,4,0.3,6.5,1,7.5c0.7,1,2.1,1.6,4.4,1.6c2.2,0,3.8,0.1,4.5,0.2
		c0.8,0.2,1.7,0.6,2.8,1.4c2.2,1.4,3.3,5.3,3.3,11.7c0,6.9-1.1,11.1-3.3,12.7c-2.9,2-9.7,2.3-20.4,1c-8.5-1.1-13.9-3.9-16.5-8.4
		c-3.1-5.4-4.6-13.9-4.6-25.7V603.9z"/>
	<path class="st1" d="M288.4,594.1c0.8-1.6,2.3-2.7,4.4-3.4c2.1-0.7,4.9-1,8.3-1c3.5,0,6.2,0.3,8.3,1c2.1,0.7,3.5,1.8,4.4,3.5
		c0.8,1.6,1.3,3.1,1.5,4.4c0.2,1.3,0.2,3.2,0.2,5.7v98.3c0,2.5-0.1,4.4-0.2,5.7c-0.2,1.3-0.7,2.7-1.6,4.2c-1.6,3-6.3,4.4-13.9,4.4
		c-7.6,0-11.9-2.7-12.8-8.1c-4.6,5.3-11,7.9-19.3,7.9c-9.9,0-18.9-4.3-27-12.9c-8.1-8.6-12.2-18.7-12.2-30.1
		c0-11.5,4.1-21.5,12.3-30.2c8.2-8.7,17.2-13,26.9-13c8.1,0,14.4,2.7,18.9,8.2v-34.6c0-2.5,0.1-4.4,0.2-5.7
		C287.1,597.2,287.6,595.7,288.4,594.1z M261.7,683.7c2.9,3,6.3,4.4,10.4,4.4c4.1,0,7.4-1.5,10.1-4.4c2.7-3,4-6.2,4-9.8
		c0-3.6-1.3-6.9-3.9-10c-2.6-3.1-6.1-4.6-10.5-4.6c-4.4,0-7.9,1.5-10.5,4.5c-2.6,3-4,6.3-4,10C257.4,677.4,258.8,680.7,261.7,683.7z
		"/>
	<path class="st1" d="M355.9,673.7c0,4.7,1.5,8.3,4.6,10.9c3.1,2.6,6.3,3.9,9.8,3.9s6.7-1,9.7-3c3-2,5.5-3,7.3-3
		c3.3,0,7.3,2.9,12,8.7c2.5,3.2,3.8,6,3.8,8.6c0,4.2-3,8.1-9.1,11.7c-6.3,4.4-13.9,6.6-23.1,6.6c-10.2,0-20-3.7-29.5-11
		c-4.5-3.5-8.2-8.2-11-14.1c-2.9-5.9-4.3-12.4-4.3-19.4c0-7.1,1.4-13.5,4.3-19.3c2.9-5.8,6.5-10.4,11-13.9
		c9.1-7.2,18.8-10.9,29.2-10.9c4.2,0,8.2,0.6,12.2,1.7s6.9,2.3,8.7,3.4l2.6,1.6c2,1.3,3.5,2.4,4.6,3.1c2.9,2.2,4.3,4.7,4.3,7.5
		c0,2.8-1.2,6-3.5,9.5c-4,6-7.7,9.1-11.4,9.1c-2.1,0-5.1-1.2-8.9-3.6c-2-1.9-4.8-2.8-8.5-2.8c-3.7,0-7.1,1.3-10.3,4
		C357.5,665.4,355.9,669,355.9,673.7z"/>
	<path class="st1" d="M470.2,639.5c0.7-6.1,5-9.2,13-9.2c4.3,0,7.5,0.3,9.6,1c2.1,0.7,3.5,1.8,4.4,3.5c0.8,1.6,1.3,3.1,1.5,4.4
		c0.2,1.3,0.2,3.2,0.2,5.7v57.6c0,2.5-0.1,4.4-0.2,5.7c-0.2,1.3-0.6,2.7-1.4,4.4c-1.5,2.9-5.3,4.3-11.3,4.3c-6,0-10-0.7-12-2.2
		c-2-1.5-3.2-3.6-3.5-6.5c-4.1,5.8-10.8,8.7-20.3,8.7c-9.5,0-18.3-4.3-26.4-13c-8.1-8.7-12.2-18.7-12.2-30.2
		c0-11.5,4.1-21.5,12.3-30.1c8.2-8.6,17.2-12.9,26.9-12.9c3.7,0,7.1,0.7,10.2,2c3.1,1.3,5.2,2.6,6.4,3.7
		C468.4,637.3,469.4,638.4,470.2,639.5z M440.2,673.8c0,3.6,1.4,6.9,4.3,9.8c2.9,2.9,6.3,4.4,10.4,4.4c4.1,0,7.4-1.5,10.1-4.4
		c2.7-3,4-6.2,4-9.8c0-3.6-1.3-6.9-3.9-10c-2.6-3.1-6-4.6-10.4-4.6c-4.3,0-7.9,1.5-10.5,4.6C441.6,666.8,440.2,670.2,440.2,673.8z"
		/>
	<path class="st1" d="M571,631.3c2.1,0.7,3.8,1.8,5.2,3.4c1.4,1.6,2.1,4.1,2.1,7.7c0,3.5-1,7.4-3.1,11.5c-2.1,4.2-5.1,6.3-9.1,6.3
		c-2,0-3.9-0.4-5.7-1.3c-1.8-0.9-4.2-1.3-7.2-1.3s-5.7,1-8.3,3.1c-2.6,2.1-3.9,4.6-3.9,7.6v34.6c0,2.5-0.1,4.4-0.2,5.7
		c-0.2,1.3-0.7,2.7-1.6,4.4c-1.6,2.9-5.9,4.3-12.8,4.3c-5.3,0-9.1-0.9-11.4-2.8c-1.8-1.5-2.7-3.9-3-7.1c0-1.1,0-2.7,0-4.8v-57.8
		c0-2.5,0.1-4.4,0.2-5.7c0.2-1.3,0.6-2.7,1.4-4.2c1.5-3,5.8-4.4,12.8-4.4c6.6,0,10.7,1.3,12.4,3.8c1.2,1.8,1.8,3.6,1.8,5.4
		c0.5-0.8,1.3-1.7,2.4-2.8c1-1.1,3.3-2.6,6.7-4.4c3.4-1.9,6.4-2.8,9-2.8c2.6,0,4.7,0.1,6.5,0.4C567,630.2,568.9,630.6,571,631.3z"/>
	<path class="st1" d="M640.6,594.1c0.8-1.6,2.3-2.7,4.4-3.4c2.1-0.7,4.9-1,8.3-1s6.2,0.3,8.3,1c2.1,0.7,3.5,1.8,4.4,3.5
		c0.8,1.6,1.3,3.1,1.5,4.4c0.2,1.3,0.2,3.2,0.2,5.7v98.3c0,2.5-0.1,4.4-0.2,5.7c-0.2,1.3-0.7,2.7-1.6,4.2c-1.6,3-6.3,4.4-13.9,4.4
		c-7.6,0-11.9-2.7-12.8-8.1c-4.6,5.3-11,7.9-19.3,7.9c-9.9,0-18.9-4.3-27-12.9c-8.1-8.6-12.2-18.7-12.2-30.1
		c0-11.5,4.1-21.5,12.3-30.2c8.2-8.7,17.2-13,26.9-13c8.1,0,14.4,2.7,18.9,8.2v-34.6c0-2.5,0.1-4.4,0.2-5.7
		C639.3,597.2,639.7,595.7,640.6,594.1z M613.8,683.7c2.9,3,6.3,4.4,10.4,4.4c4.1,0,7.4-1.5,10.1-4.4c2.7-3,4-6.2,4-9.8
		c0-3.6-1.3-6.9-3.9-10c-2.6-3.1-6.1-4.6-10.5-4.6c-4.4,0-7.9,1.5-10.5,4.5c-2.6,3-4,6.3-4,10C609.5,677.4,610.9,680.7,613.8,683.7z
		"/>
	<path class="st1" d="M681.5,709.4c-2.1-1.3-3.1-3.4-3.1-6.3c0-2.9,2.1-7.2,6.3-13c1.2-1.9,3.2-2.8,5.8-2.8c2.7,0,6.3,1.3,11,4
		c4.6,2.7,8.8,4,12.5,4c6.7,0,10-1.3,10-4c0-2.1-3.7-3.6-11-4.6c-6.9-1-13.8-3.6-20.6-7.7c-3.2-2-5.8-5.1-7.9-9.3
		c-2.1-4.2-3.1-9.2-3.1-15.1c0-17.3,11.9-26,35.7-26c7.8,0,15.8,1.9,24,5.6c3.8,1.8,5.8,4,5.8,6.6c0,2.6-1.2,5.9-3.6,9.7
		c-2.4,3.8-4.9,5.8-7.4,5.8c-1.3,0-3.8-0.8-7.3-2.5c-3.6-1.6-7.4-2.5-11.6-2.5c-6.5,0-9.7,1.2-9.7,3.6c0,3.3,3.7,5.4,11.2,6.4
		c7.2,0.8,14.3,2.9,21.1,6.3c3.2,1.5,5.8,4.2,8,8c2.1,3.8,3.2,8.5,3.2,14.2c0,5.7-1.1,10.6-3.2,14.6c-2.1,4-5.1,7-9,9
		c-7,3.4-15.8,5.1-26.4,5.1C701.5,718.6,691.3,715.5,681.5,709.4z"/>
</g>
<g>
	<circle class="st2" cx="77.4" cy="63.4" r="7.7"/>
	<circle class="st2" cx="92.6" cy="68.5" r="5.1"/>
	<path class="st2" d="M81.7,38.4C81.2,32.5,77,27.5,71,25.7c0.9-4.6-0.3-9.5-3.6-13.9c-3.3-4.5-8.3-8-14.1-10
		c-6.2-2.1-12.6-2.3-18.1-0.5c-5.5,1.8-9.5,5.4-11.2,10c-2-0.6-4-0.7-6.1-0.6C9.3,11.5,2.8,18.8,3.6,27c0.1,1.5,0.5,2.9,1.1,4.3
		c-3.3,3.2-5,7.5-4.6,11.9c0.7,8.2,8.4,14.2,17.1,13.4c0.7-0.1,1.3-0.2,2-0.3c0,0,0,0,0,0c0.5,5,3.4,9.5,8.4,12.6
		c4.2,2.7,9.4,4.1,14.9,4.1c1,0,2,0,2.9-0.1c5.9-0.5,11.5-2.7,15.7-6.1c4.1-3.3,6.6-7.6,7.1-12.1C76.5,53.4,82.4,46.3,81.7,38.4z
		 M58.2,35.2l-9.4,3.1l5.8,8c1.5,2.1,1,5-1,6.5c-0.8,0.6-1.8,0.9-2.7,0.9c-1.4,0-2.9-0.7-3.8-1.9l-5.8-8l-5.8,8
		c-0.9,1.3-2.3,1.9-3.8,1.9c-0.9,0-1.9-0.3-2.7-0.9c-2.1-1.5-2.5-4.4-1-6.5l5.8-8l-9.4-3.1c-2.4-0.8-3.8-3.4-3-5.9
		c0.8-2.4,3.4-3.8,5.9-3l9.4,3.1v-9.9c0-2.6,2.1-4.6,4.6-4.6s4.6,2.1,4.6,4.6v9.9l9.4-3.1c2.4-0.8,5.1,0.5,5.9,3
		S60.6,34.4,58.2,35.2z"/>
</g>
</svg>
