<svg id="Layer_1" data-name="Layer 1" xmlns="http://www.w3.org/2000/svg" viewBox="0 0 760.46 146.03"><defs><style>.cls-1{fill:#fff;stroke:#fff;stroke-miterlimit:10;}</style></defs><title>wc_full_logo_bw</title><path class="cls-1" d="M245.76,45.5q8.48,3.7,8.48,9.14,0,2.25-2.12,7.21t-3.58,8.68L234,106a13.72,13.72,0,0,1-6.63,8.21,11.86,11.86,0,0,1-5,.93,9.26,9.26,0,0,1-5.89-2.32,12,12,0,0,1-3.78-4.7l-1.06-2.25q-1.07-2.66-7.81-20.67-1.34,3.18-3.91,10.4t-3.31,9c-.49,1.19-.8,2-.93,2.38a14.34,14.34,0,0,1-1.13,2.19,13.56,13.56,0,0,1-2.11,2.78,10,10,0,0,1-7.29,3.18,10.44,10.44,0,0,1-6.89-2.32,12.16,12.16,0,0,1-3.71-4.7l-20-48.75a22.16,22.16,0,0,1-1.32-5.16q0-5.3,7.55-8.35a19.53,19.53,0,0,1,6.89-1.72,7.57,7.57,0,0,1,6.62,3.38,12.4,12.4,0,0,1,1.06,2.32q2.25,5.3,9.4,24.9l7.82-21.46a10.36,10.36,0,0,1,2.91-4.63c2.56-2.56,5.17-3.85,7.82-3.85A11.12,11.12,0,0,1,210.07,47a12.65,12.65,0,0,1,3.9,4.24L215,53.44q6.63,18.56,7.82,21.2l8.08-22q3.18-8.48,9.53-8.48A12.37,12.37,0,0,1,245.76,45.5Z"/><path class="cls-1" d="M283.31,32.05a5.61,5.61,0,0,1-3.51,2.72,28.68,28.68,0,0,1-13.37,0A5.56,5.56,0,0,1,262.92,32a11.49,11.49,0,0,1-1.2-3.51,39,39,0,0,1-.2-4.57,38.91,38.91,0,0,1,.2-4.57A11,11,0,0,1,262.85,16q1.84-3.57,10.33-3.58T283.25,16a10.67,10.67,0,0,1,1.25,3.51,36.91,36.91,0,0,1,.2,4.57,36.81,36.81,0,0,1-.2,4.57A10.39,10.39,0,0,1,283.31,32.05ZM261.52,56.62a39,39,0,0,1,.2-4.57,12.59,12.59,0,0,1,1.13-3.51q1.84-3.43,10.33-3.44,6.36,0,9,2.25a7.32,7.32,0,0,1,2.38,5.7c.09.88.13,2.16.13,3.84v46.36a36.91,36.91,0,0,1-.2,4.57,10.75,10.75,0,0,1-1.25,3.51q-1.72,3.44-10.2,3.44t-10.2-3.58a12.54,12.54,0,0,1-1.13-3.44,38.75,38.75,0,0,1-.2-4.64Z"/><path class="cls-1" d="M295.3,23.77a36.62,36.62,0,0,1,.2-4.56,12,12,0,0,1,1.12-3.51q1.86-3.58,10.33-3.58,8.08,0,10.07,3.58a10.39,10.39,0,0,1,1.26,3.57,40.91,40.91,0,0,1,.2,4.64V85.23q0,4.77.79,6t3.51,1.26a20.29,20.29,0,0,1,3.64.2,6.77,6.77,0,0,1,2.26,1.12q2.64,1.72,2.65,9.41,0,8.34-2.65,10.19-3.45,2.39-16.43.8Q302,112.92,299,107.48q-3.72-6.48-3.71-20.66Z"/><path class="cls-1" d="M385.43,15.89a5.63,5.63,0,0,1,3.51-2.71,28.37,28.37,0,0,1,13.38,0A5.56,5.56,0,0,1,405.83,16,11.36,11.36,0,0,1,407,19.47a39,39,0,0,1,.2,4.57v79.07a38.79,38.79,0,0,1-.2,4.57,9.32,9.32,0,0,1-1.26,3.38q-2,3.57-11.19,3.58t-10.26-6.49q-5.56,6.34-15.5,6.35-11.93,0-21.72-10.39a34.89,34.89,0,0,1,.06-48.55Q357,45.11,368.81,45.1q9.79,0,15.23,6.62V23.91a38.91,38.91,0,0,1,.2-4.57A10.75,10.75,0,0,1,385.43,15.89Zm-21.52,72a11.12,11.12,0,0,0,8.34,3.58,10.53,10.53,0,0,0,8.15-3.58A11.48,11.48,0,0,0,383.64,80a12.24,12.24,0,0,0-3.11-8,10.43,10.43,0,0,0-8.41-3.71,10.69,10.69,0,0,0-8.48,3.64,11.92,11.92,0,0,0-3.18,8A11.19,11.19,0,0,0,363.91,87.88Z"/><path class="cls-1" d="M439.67,79.87q0,5.63,3.71,8.74a12,12,0,0,0,7.88,3.11,13.69,13.69,0,0,0,7.81-2.45c2.43-1.63,4.39-2.45,5.9-2.45q4,0,9.67,7,3,3.84,3,6.89,0,5-7.28,9.4-7.56,5.31-18.55,5.3-12.32,0-23.7-8.87a31.51,31.51,0,0,1-8.88-11.33,35.19,35.19,0,0,1-3.44-15.63,34.35,34.35,0,0,1,3.44-15.49,31.81,31.81,0,0,1,8.88-11.2q11-8.73,23.44-8.74a35.11,35.11,0,0,1,9.8,1.39,33,33,0,0,1,7,2.72l2.12,1.32q2.39,1.59,3.71,2.52c2.29,1.77,3.44,3.77,3.44,6s-.92,4.79-2.78,7.61q-4.77,7.29-9.14,7.29-2.52,0-7.15-2.92-2.39-2.25-6.82-2.25a12.74,12.74,0,0,0-8.28,3.18A10.82,10.82,0,0,0,439.67,79.87Z"/><path class="cls-1" d="M531.59,52.38Q532.39,45,542.05,45a27.5,27.5,0,0,1,7.69.79,5.61,5.61,0,0,1,3.51,2.78,11.44,11.44,0,0,1,1.19,3.51,39,39,0,0,1,.2,4.57V103a38.91,38.91,0,0,1-.2,4.57,12.08,12.08,0,0,1-1.13,3.51q-1.86,3.45-9.07,3.44c-4.81,0-8-.59-9.67-1.78a7.21,7.21,0,0,1-2.85-5.24q-4.9,7-16.36,7T494.11,104a34.88,34.88,0,0,1,.06-48.54Q504,45.11,515.83,45.1A20.62,20.62,0,0,1,524,46.69a18.38,18.38,0,0,1,5.17,3A18.84,18.84,0,0,1,531.59,52.38ZM507.48,79.93a11,11,0,0,0,3.45,7.89,11.23,11.23,0,0,0,8.34,3.51,10.57,10.57,0,0,0,8.15-3.58,11.5,11.5,0,0,0,3.24-7.88,12.29,12.29,0,0,0-3.11-8,10.35,10.35,0,0,0-8.34-3.7,10.73,10.73,0,0,0-8.48,3.7A12,12,0,0,0,507.48,79.93Z"/><path class="cls-1" d="M612.65,45.76a9,9,0,0,1,4.17,2.72c1.1,1.28,1.66,3.33,1.66,6.16A21,21,0,0,1,616,63.91q-2.52,5-7.28,5a10.28,10.28,0,0,1-4.57-1.06,13.42,13.42,0,0,0-5.77-1.06,10.46,10.46,0,0,0-6.69,2.52,7.61,7.61,0,0,0-3.11,6.09v27.82a36.91,36.91,0,0,1-.2,4.57,10.75,10.75,0,0,1-1.25,3.51q-2,3.44-10.34,3.44c-4.23,0-7.28-.75-9.13-2.25a8,8,0,0,1-2.39-5.7V56.49a39,39,0,0,1,.2-4.57,10.81,10.81,0,0,1,1.13-3.38Q568.41,45,576.89,45q8,0,9.93,3a7.65,7.65,0,0,1,1.46,4.37,23.48,23.48,0,0,1,1.92-2.25,24.55,24.55,0,0,1,5.36-3.57,15.52,15.52,0,0,1,7.22-2.25,34.71,34.71,0,0,1,5.23.33A31.87,31.87,0,0,1,612.65,45.76Z"/><path class="cls-1" d="M668.61,15.89a5.63,5.63,0,0,1,3.51-2.71,28.33,28.33,0,0,1,13.37,0A5.56,5.56,0,0,1,689,16a11.15,11.15,0,0,1,1.2,3.51,39,39,0,0,1,.2,4.57v79.07a38.79,38.79,0,0,1-.2,4.57,9.51,9.51,0,0,1-1.26,3.38q-2,3.57-11.19,3.58t-10.27-6.49q-5.57,6.34-15.5,6.35-11.91,0-21.72-10.39a34.88,34.88,0,0,1,.07-48.55Q640.2,45.11,652,45.1q9.81,0,15.24,6.62V23.91a36.81,36.81,0,0,1,.2-4.57A10.51,10.51,0,0,1,668.61,15.89Zm-21.53,72a11.15,11.15,0,0,0,8.35,3.58,10.51,10.51,0,0,0,8.14-3.58A11.44,11.44,0,0,0,666.82,80a12.24,12.24,0,0,0-3.11-8,10.43,10.43,0,0,0-8.41-3.71,10.68,10.68,0,0,0-8.48,3.64,11.92,11.92,0,0,0-3.18,8A11.22,11.22,0,0,0,647.08,87.88Z"/><path class="cls-1" d="M701.52,108.54a5.5,5.5,0,0,1-2.52-5q0-3.44,5-10.46a5.17,5.17,0,0,1,4.7-2.25q3.24,0,8.81,3.24t10.06,3.25q8.08,0,8.08-3.18,0-2.52-8.87-3.71a43.45,43.45,0,0,1-16.56-6.23,17.72,17.72,0,0,1-6.36-7.48,27.22,27.22,0,0,1-2.51-12.12q0-20.92,28.74-20.93a46.72,46.72,0,0,1,19.34,4.51q4.63,2.12,4.63,5.29t-2.91,7.82q-2.91,4.63-6,4.63c-1.06,0-3-.66-5.89-2a22,22,0,0,0-9.34-2q-7.82,0-7.82,2.91,0,4,9,5.17a49.42,49.42,0,0,1,16.95,5,15,15,0,0,1,6.43,6.43,23,23,0,0,1,2.58,11.45,24.64,24.64,0,0,1-2.58,11.73,16.7,16.7,0,0,1-7.22,7.21Q738.88,116,726.09,116A45.45,45.45,0,0,1,701.52,108.54Z"/><circle class="cls-1" cx="133.8" cy="121.89" r="13.33"/><circle class="cls-1" cx="160.13" cy="130.78" r="8.88"/><path class="cls-1" d="M141.34,78.73c-.92-10.22-8.19-18.86-18.53-22,1.61-7.88-.57-16.44-6.14-24.1S102.39,18.68,92.33,15.22c-10.67-3.67-21.8-4-31.36-.81s-16.36,9.3-19.3,17.37a28.61,28.61,0,0,0-10.48-1C16.13,32.19,4.92,44.81,6.2,59A24.22,24.22,0,0,0,8.05,66.3a25.09,25.09,0,0,0-8,20.51C1.38,101,14.68,111.35,29.74,110a27.89,27.89,0,0,0,3.4-.51v0c.78,8.68,5.93,16.44,14.5,21.85a48.25,48.25,0,0,0,25.71,7c1.68,0,3.38-.07,5.08-.23a50.65,50.65,0,0,0,27.11-10.52c7.14-5.77,11.49-13.21,12.27-20.95C132.26,104.64,142.58,92.39,141.34,78.73Zm-40.71-5.65L84.37,78.36l10,13.83a8,8,0,0,1-13,9.45l-10-13.83L61.32,101.64a8,8,0,0,1-13-9.45l10-13.83L42.1,73.08a8,8,0,1,1,5-15.29l16.26,5.28V46A8,8,0,1,1,79.4,46V63.07l16.26-5.28a8,8,0,0,1,5,15.29Z"/></svg>