<svg id="Layer_1" data-name="Layer 1" xmlns="http://www.w3.org/2000/svg" viewBox="0 0 548.19 413.28"><defs><style>.cls-3{fill:#663695;}</style></defs><title>wc_logo_bw</title><circle class="cls-3" cx="433.97" cy="355.63" r="43.22"/><circle class="cls-3" cx="519.37" cy="384.45" r="28.81"/><path class="cls-3" d="M458.43,215.64c-3-33.15-26.58-61.15-60.12-71.46,5.21-25.58-1.85-53.32-19.92-78.16-18.28-25.13-46.31-45.14-78.93-56.36C264.86-2.24,228.74-3.18,197.75,7c-30.84,10.16-53.05,30.16-62.6,56.36a93.58,93.58,0,0,0-34-3.11C52.31,64.71,16,105.62,20.1,151.49a78.9,78.9,0,0,0,6,23.86C7.49,193-1.91,217.25.32,241.85,4.48,287.72,47.6,321.44,96.45,317a96.11,96.11,0,0,0,11-1.66s0,.11,0,.16c2.55,28.16,19.25,53.32,47,70.86,23.56,14.88,52.69,22.76,83.41,22.75,5.44,0,10.94-.24,16.46-.74,33.22-3,64.44-15.13,87.92-34.11,23.16-18.73,37.29-42.86,39.81-68C429,299.69,462.45,260,458.43,215.64Zm-132-18.32-52.74,17.13,32.59,44.86A26.06,26.06,0,1,1,264.06,290l-32.59-44.86L198.88,290a26.07,26.07,0,1,1-42.18-30.64l32.59-44.86-52.73-17.13a26.07,26.07,0,1,1,16.11-49.59l52.73,17.14V109.42a26.07,26.07,0,0,1,52.13,0v55.45l52.74-17.14a26.07,26.07,0,0,1,16.11,49.59Z"/></svg>